<?xml version="1.0" encoding="UTF-8"?>
<svg version="1.1" xmlns="http://www.w3.org/2000/svg" width="640" height="640">
<path d="M0 0 C7.56150654 6.52237669 14.10182687 13.51776331 20.17285156 21.46630859 C20.91019531 22.38798828 21.64753906 23.30966797 22.40722656 24.25927734 C28.60752859 32.18069769 33.53938583 40.5679729 38.17285156 49.46630859 C38.49527832 50.08376953 38.81770508 50.70123047 39.14990234 51.33740234 C59.54169993 91.03258132 61.57010572 139.28222479 48.17285156 181.46630859 C43.47540583 195.77283289 37.7702155 209.32878405 25.17285156 218.46630859 C20.1706615 220.96740363 12.90549445 220.00185276 7.73535156 218.40380859 C5.36397456 216.61081622 4.17366002 215.24376989 2.51269531 212.84521484 C2.07175537 212.21301025 1.63081543 211.58080566 1.17651367 210.92944336 C0.84530518 210.44660889 0.51409668 209.96377441 0.17285156 209.46630859 C0.17071404 210.54173416 0.17071404 210.54173416 0.16853333 211.6388855 C0.15061561 218.43491089 0.10874438 225.23042466 0.04076099 232.02612114 C0.0066425 235.51896423 -0.01859504 239.01137701 -0.02270508 242.50439453 C-0.02784932 246.5312777 -0.07311483 250.55688223 -0.12011719 254.58349609 C-0.11618454 255.82243622 -0.11225189 257.06137634 -0.10820007 258.33786011 C-0.23736495 266.10013619 -1.43040076 271.9668966 -5.82714844 278.46630859 C-8.17871094 280.72021484 -8.17871094 280.72021484 -10.45214844 282.02880859 C-11.20753906 282.48384766 -11.96292969 282.93888672 -12.74121094 283.40771484 C-18.66104477 286.41197508 -25.23864957 286.51722612 -31.56152344 284.66552734 C-38.09339527 281.78556567 -41.62064028 277.78466784 -44.82714844 271.46630859 C-45.85120956 268.39412524 -45.98180204 266.20618684 -46.0324707 262.98510742 C-46.05241592 261.86417191 -46.07236115 260.74323639 -46.09291077 259.58833313 C-46.10962326 258.37888535 -46.12633575 257.16943756 -46.14355469 255.92333984 C-46.16433578 254.68460617 -46.18511688 253.4458725 -46.20652771 252.16960144 C-46.26086641 248.88005603 -46.31110795 245.59048133 -46.359375 242.30084229 C-46.4096549 238.94253045 -46.46530705 235.58430813 -46.52050781 232.22607422 C-46.62767891 225.63955701 -46.72944979 219.05297275 -46.82714844 212.46630859 C-47.29765625 212.88783203 -47.76816406 213.30935547 -48.25292969 213.74365234 C-48.87554687 214.29150391 -49.49816406 214.83935547 -50.13964844 215.40380859 C-50.75453125 215.94908203 -51.36941406 216.49435547 -52.00292969 217.05615234 C-56.29758173 220.37600114 -61.66042591 220.03252476 -66.82714844 219.46630859 C-71.82048348 217.7028275 -75.19011504 214.189791 -78.82714844 210.46630859 C-78.83079407 211.58859863 -78.8344397 212.71088867 -78.8381958 213.8671875 C-78.87518908 224.4604921 -78.93300931 235.05350717 -79.01105118 245.64659119 C-79.05050559 251.0922056 -79.08270418 256.53765879 -79.09814453 261.98339844 C-79.11332434 267.24205527 -79.14779387 272.50026883 -79.19545746 277.75872803 C-79.21025752 279.76165914 -79.21818866 281.76465355 -79.21903229 283.76763916 C-79.22140781 286.58043286 -79.24853462 289.39200735 -79.28125 292.20458984 C-79.27370445 293.43782234 -79.27370445 293.43782234 -79.26600647 294.69596863 C-79.393671 301.8228654 -81.59647568 306.95680174 -86.32714844 312.27880859 C-92.88829669 318.01981331 -98.22225135 319.95402092 -107.01074219 319.78662109 C-113.3459477 319.06611228 -119.38891276 316.02782859 -123.82714844 311.46630859 C-128.67082964 304.14574495 -129.96447248 298.19921142 -130.0324707 289.46313477 C-130.0423703 288.67236542 -130.0522699 287.88159607 -130.06246948 287.06686401 C-130.0939477 284.46436513 -130.11878758 281.86184802 -130.14355469 279.25927734 C-130.16413604 277.4503788 -130.18513282 275.64148493 -130.20652771 273.83259583 C-130.26162641 269.07992351 -130.31108934 264.32720866 -130.359375 259.57446289 C-130.40967929 254.72131583 -130.46531869 249.86823025 -130.52050781 245.01513672 C-130.62794007 235.49891324 -130.72941801 225.9826363 -130.82714844 216.46630859 C-131.60276123 216.95236572 -132.37837402 217.43842285 -133.17749023 217.93920898 C-137.85353291 220.63419166 -142.83116972 220.23576761 -147.97167969 218.91552734 C-152.52101964 217.0222123 -155.07012451 214.16193814 -158.06933594 210.30224609 C-158.77687012 209.39780762 -159.4844043 208.49336914 -160.21337891 207.56152344 C-160.74592285 206.87010254 -161.2784668 206.17868164 -161.82714844 205.46630859 C-161.82857346 206.08303436 -161.82999847 206.69976013 -161.83146667 207.33517456 C-161.85125466 213.79274154 -161.9057224 220.2493748 -161.97973633 226.70654297 C-162.00283845 229.1117481 -162.01729362 231.51705329 -162.02270508 233.92236328 C-162.0320512 237.39336945 -162.07316882 240.86281877 -162.12011719 244.33349609 C-162.11618454 245.39744598 -162.11225189 246.46139587 -162.10820007 247.55758667 C-162.24724264 254.77974487 -163.64775312 260.47759402 -167.82714844 266.46630859 C-174.58618039 272.80014413 -180.11920596 273.88580709 -189.30371094 273.81005859 C-195.71347589 273.18471567 -199.50666544 270.13333003 -203.70214844 265.46630859 C-207.85711259 259.60047685 -208.15074067 254.78375271 -208.24121094 247.79052734 C-208.26057709 246.86536819 -208.27994324 245.94020905 -208.29989624 244.98701477 C-208.35950098 242.04270542 -208.40600092 239.09835658 -208.45214844 236.15380859 C-208.4903458 234.15314085 -208.52939855 232.15248924 -208.56933594 230.15185547 C-208.66518685 225.25680479 -208.74928843 220.36167715 -208.82714844 215.46630859 C-209.42527344 215.94068359 -210.02339844 216.41505859 -210.63964844 216.90380859 C-215.27642221 220.21578986 -220.34550722 220.04288366 -225.82714844 219.46630859 C-232.70113602 217.35846474 -236.69563343 211.28576678 -240.05664062 205.26318359 C-241.20847768 202.93730052 -242.28380172 200.59282055 -243.32714844 198.21630859 C-243.7095166 197.35223389 -244.09188477 196.48815918 -244.48583984 195.59790039 C-250.73347702 181.08704742 -254.64828145 166.09458473 -256.82714844 150.46630859 C-256.92141113 149.79865479 -257.01567383 149.13100098 -257.11279297 148.44311523 C-262.52490181 105.99339927 -251.49315343 60.13749241 -225.51855469 25.86865234 C-198.58793773 -8.56112111 -162.59974372 -31.53285202 -118.68652344 -37.08447266 C-74.93719885 -41.72573735 -33.49498869 -28.11538201 0 0 Z " fill="#FA70A9" transform="translate(420.8271484375,179.53369140625)"/>
<path d="M0 0 C1.70308799 1.33450924 3.39161239 2.68788799 5.0625 4.0625 C6.21105469 4.95001953 6.21105469 4.95001953 7.3828125 5.85546875 C23.90614235 19.35623826 34.7343256 42.10893038 37.0625 63.0625 C38.13159257 85.65278645 35.70974513 106.41545769 22.0625 125.0625 C21.62679687 125.69285156 21.19109375 126.32320312 20.7421875 126.97265625 C10.83807722 139.99033413 -7.19032959 147.11732215 -22.91137695 149.34179688 C-47.36540692 152.30836075 -72.6906325 150.18976568 -92.9375 135.0625 C-107.3124988 123.10088902 -115.4643489 106.1945076 -117.6875 87.69140625 C-118.66765475 73.46384747 -118.30623813 60.68777238 -113.9375 47.0625 C-113.59847656 45.89589844 -113.25945312 44.72929687 -112.91015625 43.52734375 C-106.50205649 23.29964095 -92.34568838 5.97528384 -73.85546875 -4.4296875 C-72.89253906 -4.92726562 -71.92960937 -5.42484375 -70.9375 -5.9375 C-70.14988281 -6.35257813 -69.36226563 -6.76765625 -68.55078125 -7.1953125 C-46.29551264 -17.98332422 -19.81488696 -14.07023486 0 0 Z " fill="#FEFEFE" transform="translate(351.9375,197.9375)"/>
<path d="M0 0 C6.0309725 2.43805271 10.21524308 6.83235113 14 12 C14.67865112 12.83874664 15.35730225 13.67749329 16.05651855 14.54165649 C18.55761433 18.99225126 18.56508752 22.26292729 18.51757812 27.27490234 C18.5245874 28.18951736 18.53159668 29.10413239 18.53881836 30.04646301 C18.55637516 33.05993312 18.54478169 36.07245837 18.53125 39.0859375 C18.53394604 41.18812235 18.53782939 43.29030598 18.54284668 45.39248657 C18.548739 49.79563281 18.54018887 54.19845409 18.52148438 58.6015625 C18.49872334 64.23278442 18.51180189 69.86324252 18.53577423 75.49443626 C18.55026324 79.83545635 18.54561147 84.1762969 18.53526306 88.51732254 C18.5326029 90.5928621 18.53584041 92.6684182 18.54518127 94.74393845 C18.55539471 97.65183084 18.5397774 100.5585063 18.51757812 103.46630859 C18.52567505 104.31644028 18.53377197 105.16657196 18.54211426 106.04246521 C18.44041581 113.27063681 16.30096697 118.41141216 11.5 123.8125 C4.93885175 129.55350472 -0.39510291 131.48771233 -9.18359375 131.3203125 C-15.51879927 130.59980369 -21.56176432 127.56152 -26 123 C-30.84615617 115.67569579 -32.13747256 109.71174635 -32.22460938 100.97192383 C-32.24169449 99.78060349 -32.24169449 99.78060349 -32.25912476 98.56521606 C-32.36955158 90.28085582 -32.41715598 81.99563382 -32.45996094 73.71069336 C-32.48222839 69.78707095 -32.52399576 65.8644008 -32.58300781 61.94116211 C-32.6543287 57.189041 -32.69082578 52.43781517 -32.70307922 47.68518639 C-32.71343732 45.88192518 -32.73575988 44.07868875 -32.77067566 42.27573586 C-32.96873783 31.49108863 -32.74253216 24.26617831 -25 16 C-24.36191406 15.02546875 -23.72382813 14.0509375 -23.06640625 13.046875 C-17.2929723 4.22926678 -11.26547371 -2.36790212 0 0 Z " fill="#4E55A5" transform="translate(323,368)"/>
<path d="M0 0 C6.83644479 3.06942419 14.16497385 10.97837836 17 18 C17.27415466 20.76748657 17.27415466 20.76748657 17.30639648 23.98681641 C17.32238388 25.19552399 17.33837128 26.40423157 17.35484314 27.64956665 C17.36020584 28.95372528 17.36556854 30.25788391 17.37109375 31.6015625 C17.38006957 32.96194554 17.38919158 34.32232762 17.39845276 35.68270874 C17.41493242 38.53572988 17.42264011 41.3886339 17.42553711 44.24169922 C17.43089887 47.87312825 17.46848891 51.50343314 17.51428127 55.13454628 C17.54424317 57.9469692 17.55126487 60.7591287 17.55226326 63.57169724 C17.55844384 65.55349358 17.58782559 67.5351746 17.61778259 69.51675415 C17.57860279 77.43055571 16.53154293 83.39114853 12 90 C9.6484375 92.25390625 9.6484375 92.25390625 7.375 93.5625 C6.61960937 94.01753906 5.86421875 94.47257812 5.0859375 94.94140625 C-0.83389633 97.94566649 -7.41150113 98.05091753 -13.734375 96.19921875 C-20.26624683 93.31925708 -23.79349184 89.31835925 -27 83 C-28.03719351 79.88841946 -28.17051556 77.60894585 -28.24047852 74.34204102 C-28.26622452 73.17975479 -28.29197052 72.01746857 -28.3184967 70.81996155 C-28.40303931 65.47942688 -28.46862187 60.13906783 -28.51489258 54.7980957 C-28.54151468 51.98966576 -28.59006646 49.18296171 -28.65844727 46.37524414 C-28.75708119 42.31371894 -28.78860708 38.25404273 -28.81640625 34.19140625 C-28.85455948 32.95032608 -28.89271271 31.70924591 -28.93202209 30.43055725 C-28.90823477 19.63462695 -24.75983579 12.93395019 -17.37037659 5.27418518 C-11.91604188 0.04119088 -7.44020065 -1.02332857 0 0 Z " fill="#4E55A5" transform="translate(403,368)"/>
<path d="M0 0 C15.00068489 11.88365945 32.04271408 36.77764154 35 56 C35.66 56 36.32 56 37 56 C50.18709307 98.11530119 50.23927555 144.54413384 31 185 C26.83935876 192.90059075 21.18569048 200.90715476 13 205 C11.08730904 205.14889211 9.16826375 205.2213692 7.25 205.25 C6.22390625 205.27578125 5.1978125 205.3015625 4.140625 205.328125 C0.53584864 204.95150657 -1.87035216 203.78033859 -5 202 C-4.61070312 201.35417969 -4.22140625 200.70835937 -3.8203125 200.04296875 C20.99032702 158.25361969 32.79721438 114.57142603 23 66 C22.75056641 64.730354 22.75056641 64.730354 22.49609375 63.43505859 C18.23789712 42.3530425 10.45536897 22.95665497 0.79101562 3.80566406 C0 2 0 2 0 0 Z " fill="#E34DA6" transform="translate(431,194)"/>
<path d="M0 0 C4.4959663 3.06108344 9.4665828 7.05816561 11.9375 12 C12.05340682 13.70300054 12.10708122 15.41040608 12.13037109 17.1171875 C12.14643402 18.18590088 12.16249695 19.25461426 12.17904663 20.35571289 C12.22358317 25.27050154 12.26460449 30.185154 12.28759766 35.10009766 C12.30410835 37.6858015 12.33133288 40.27146064 12.36962891 42.85693359 C12.42466726 46.59236247 12.44631917 50.32671904 12.4609375 54.0625 C12.48360687 55.2076709 12.50627625 56.3528418 12.52963257 57.53271484 C12.51018016 64.99913934 11.32198332 70.82875622 6.9375 77 C0.17040701 83.32913753 -5.3482129 84.41955082 -14.5390625 84.34375 C-20.94882745 83.71840708 -24.742017 80.66702143 -28.9375 76 C-33.14624478 70.05824267 -33.41490009 65.11094557 -33.50390625 58.01953125 C-33.51767807 57.0515007 -33.53144989 56.08347015 -33.54563904 55.08610535 C-33.56887524 53.0394763 -33.58615885 50.99277219 -33.59790039 48.94604492 C-33.62476607 45.83955003 -33.69969155 42.73649404 -33.77539062 39.63085938 C-34.01213124 21.58237077 -34.01213124 21.58237077 -27.87304688 14.80664062 C-27.27556641 14.21044922 -26.67808594 13.61425781 -26.0625 13 C-25.0199816 11.57814828 -23.99574817 10.14248884 -23 8.6875 C-16.85423174 0.54806429 -10.13675161 -3.30995971 0 0 Z " fill="#4D55A5" transform="translate(246.0625,369)"/>
<path d="M0 0 C8.01930523 4.51747142 12.88151327 11.22273186 15.96484375 19.83203125 C18.18096292 28.99810993 17.19576547 38.30090252 12.625 46.5625 C7.37831114 53.73365003 1.57026518 59.71061516 -7.375 61.5625 C-16.32137494 62.72494016 -22.89506338 60.4869744 -30.375 55.5625 C-37.19585465 50.09189617 -40.80739196 41.31066468 -41.82421875 32.8046875 C-42.12971999 22.37550728 -40.33857624 14.87235411 -33.75 6.75 C-24.32538338 -3.03910455 -12.5710789 -5.62555781 0 0 Z " fill="#070B78" transform="translate(303.375,212.4375)"/>
<path d="M0 0 C4.40802625 2.16394016 7.23139226 4.38196867 9 9 C9.65862967 14.31782472 9.65060637 18.59869397 7.375 23.5 C3.54454079 27.53206233 0.07138332 29.14398373 -5.4375 29.5 C-10.3026548 29.33563666 -13.66477733 27.5107607 -17 24 C-19.9441467 19.37207709 -19.62159891 14.29510182 -19 9 C-14.9446576 0.58891946 -8.83505793 -1.2742872 0 0 Z " fill="#FBFBFD" transform="translate(291,220)"/>
<path d="M0 0 C4.00631009 2.03957605 6.57198777 4.22309209 9 8 C8.14728516 7.93039062 8.14728516 7.93039062 7.27734375 7.859375 C1.64160802 7.59593493 -2.59829662 8.21106276 -7 12 C-11.65938987 17.0280449 -15.08348824 22.72937661 -18.51953125 28.625 C-20.6999943 32.122946 -23.15085176 35.02134503 -26 38 C-26.66 38 -27.32 38 -28 38 C-28.87473221 27.06584739 -29.12123598 19.46330797 -22.23828125 10.48046875 C-15.37858801 2.87853994 -10.61044242 -1.54735619 0 0 Z " fill="#3A3D76" transform="translate(403,368)"/>
<path d="M0 0 C4.78778341 2.03480795 7.92481485 4.14406675 10 9 C9.319375 8.835 8.63875 8.67 7.9375 8.5 C1.78218566 7.45228692 -2.71012402 7.47341601 -8 11 C-13.55366689 16.13253575 -17.30629702 22.48830553 -21.10546875 28.94921875 C-24.17303559 33.88895009 -26.27661218 37.25118706 -32 39 C-32.83974278 30.49593817 -32.43979749 25.13762641 -26.9921875 18.41015625 C-26.33476562 17.61480469 -25.67734375 16.81945312 -25 16 C-23.84449119 14.25637348 -22.69852232 12.50638473 -21.5625 10.75 C-15.94757671 2.83919696 -10.12807964 -2.16343473 0 0 Z " fill="#3B3D76" transform="translate(323,368)"/>
<path d="M0 0 C4.73252174 3.22214246 10.15200471 7.03444023 11.66796875 12.7578125 C11.75691406 13.49773437 11.84585938 14.23765625 11.9375 15 C11.10605469 14.36771484 11.10605469 14.36771484 10.2578125 13.72265625 C9.53335938 13.17480469 8.80890625 12.62695312 8.0625 12.0625 C7.34320313 11.51722656 6.62390625 10.97195313 5.8828125 10.41015625 C2.56445954 8.00468352 0.33030805 7.75810917 -3.75 7.625 C-5.27173828 7.55152344 -5.27173828 7.55152344 -6.82421875 7.4765625 C-12.15276386 8.33787136 -15.5066853 10.93264266 -18.67602539 15.14404297 C-20.27116875 17.60177131 -21.77512966 20.093363 -23.25 22.625 C-24.25722633 24.32973376 -25.2713168 26.03043474 -26.29296875 27.7265625 C-26.94881958 28.84925537 -26.94881958 28.84925537 -27.61791992 29.99462891 C-29.19266174 32.18069098 -30.83983588 33.50000617 -33.0625 35 C-33.95450697 26.75955465 -33.20357759 21.84409725 -27.99609375 15.31640625 C-27.35800781 14.55199219 -26.71992188 13.78757812 -26.0625 13 C-25.03676799 11.56599136 -24.01558402 10.12871339 -23 8.6875 C-16.85423174 0.54806429 -10.13675161 -3.30995971 0 0 Z " fill="#3B3D77" transform="translate(246.0625,369)"/>
</svg>
